<?xml version="1.0" encoding="utf-8"?>
<!-- Generator: Adobe Illustrator 27.9.1, SVG Export Plug-In . SVG Version: 6.00 Build 0)  -->
<svg version="1.1" id="Capa_1" xmlns="http://www.w3.org/2000/svg" xmlns:xlink="http://www.w3.org/1999/xlink" x="0px" y="0px"
	 viewBox="0 0 750 518" style="enable-background:new 0 0 750 518;" xml:space="preserve">
<style type="text/css">
	.st0{fill:#FFFFFF;}
</style>
<path class="st0" d="M169.44,225.79v2.28h-12v39.84h-2.7v-39.84h-12v-2.28H169.44z"/>
<path class="st0" d="M216.06,225.79v42.12h-2.7v-42.12H216.06z"/>
<path class="st0" d="M292.97,226.69v41.22h-2.7v-35.58l-15.84,35.58h-2.16l-15.9-35.58v35.58h-2.7v-41.22h2.88l16.8,37.68
	l16.8-37.68H292.97z"/>
<path class="st0" d="M384.08,265.63h15.66v2.28h-18.36v-42.12h2.7V265.63z"/>
<path class="st0" d="M450.52,225.79v42.12h-2.7v-42.12H450.52z"/>
<path class="st0" d="M522.85,267.91h-2.7l-24.72-37.68v37.68h-2.7v-42.06h2.7l24.72,37.56v-37.56h2.7V267.91z"/>
<g>
	<rect x="322.64" y="265.63" class="st0" width="18.6" height="2.28"/>
	<rect x="322.64" y="245.65" class="st0" width="16.8" height="2.28"/>
	<rect x="322.83" y="225.79" class="st0" width="18.41" height="2.28"/>
</g>
<g>
	<rect x="557.1" y="265.63" class="st0" width="18.6" height="2.28"/>
	<rect x="557.1" y="245.65" class="st0" width="16.8" height="2.28"/>
	<rect x="557.3" y="225.79" class="st0" width="18.41" height="2.28"/>
</g>
</svg>
